<?xml version="1.0" encoding="UTF-8" standalone="no"?>
<svg width="873px" height="224px" viewBox="0 0 873 224" version="1.1" xmlns="http://www.w3.org/2000/svg" xmlns:xlink="http://www.w3.org/1999/xlink" xmlns:sketch="http://www.bohemiancoding.com/sketch/ns">
    <title>Filanthropy_logo</title>
    <description>Created with Sketch (http://www.bohemiancoding.com/sketch)</description>
    <defs></defs>
    <g id="Page-1" stroke="none" stroke-width="1" fill="none" fill-rule="evenodd" sketch:type="MSPage">
        <g id="Filanthropy-logo_logo" sketch:type="MSLayerGroup" transform="translate(0.000000, -723.000000)">
            <g id="Background" transform="translate(373.000000, 876.000000)"></g>
            <g id="Body" transform="translate(373.000000, 876.000000)"></g>
            <g id="Footer" transform="translate(373.000000, 876.000000)"></g>
            <g id="Navigation" transform="translate(0.000000, 723.000000)">
                <g id="Group">
                    <g>
                        <text id="ilanthropY*" stroke="#FFFFFF" stroke-width="2" fill="#FFFFFF" sketch:type="MSTextLayer" font-family="Brain Flower" font-size="159.520958" font-weight="normal" letter-spacing="12.3076925">
                            <tspan x="239" y="165" fill="#000000">ilanthropY</tspan>
                            <tspan x="835.109532" y="165" font-size="129.610778" letter-spacing="10" fill="#000000">*</tspan>
                        </text>
                        <path d="M2.13019238,134.281931 C-1.24256641,111.76416 -2.13013451,80.1087428 11.183387,60.8544168 C17.2188501,52.043115 26.627072,44.0476746 34.7926986,36.7049231 C42.6032979,29.6885162 50.4138972,18.1032862 60.5321735,13.0449463 C65.8575822,10.271018 73.1356406,9.45515668 79.3486173,8.3129509 C86.6266758,7.00757287 91.5970571,3.90730004 97.8100339,2.2755775 C108.460851,-0.498350824 129.052431,-0.824695332 139.703248,1.78606074 C161.892451,7.49708963 184.791708,16.3083914 204.140693,29.1989994 C223.312164,41.9264353 234.318008,68.8498572 237.690767,89.0832167 C242.128607,114.701261 240.353471,135.750481 230.767736,160.389492 C225.974868,172.627411 222.602109,182.907263 210.176156,191.065876 C199.880366,197.755938 192.24728,203.303795 181.418949,208.198962 C157.632124,218.968331 134.910381,226.800599 107.040742,223.047637 C84.3189987,219.947365 58.934551,210.483374 41.8932434,194.655665 C26.627072,180.622851 9.94079169,160.715836 5.68046479,142.114199 C5.32543755,140.482477 3.19527411,133.139725 4.79289669,136.40317" id="Shape" fill="#000000" sketch:type="MSShapeGroup"></path>
                    </g>
                    <path d="M105.144068,51.8979592 C105.144068,53.6938776 104.966102,56.3061224 104.788136,60.0612245 C105.677966,79.6530612 106.033898,96.4693878 106.033898,110.346939 L106.033898,111.979592 C106.389831,112.795918 107.279661,113.122449 108.70339,113.122449 L152.305085,113.122449 C153.372881,113.122449 154.618644,112.959184 156.220339,112.795918 C157.466102,113.122449 158,113.612245 158,113.938776 L158,119 C158,119.816327 156.754237,120.306122 154.084746,120.632653 C153.550847,120.632653 153.194915,120.469388 153.194915,120.306122 L116.711864,120.632653 L109.237288,120.632653 L106.211864,120.306122 C106.567797,145.122449 106.567797,158.673469 106.567797,167.653061 C106.567797,170.102041 106.745763,174.836735 106.923729,181.857143 L104.788136,183 L100.872881,183 L98.7372881,181.857143 L97.8474576,128.142857 C98.2033898,126.673469 98.2033898,125.367347 98.2033898,124.55102 C97.8474576,122.265306 97.8474576,120.632653 97.8474576,120.142857 C97.8474576,118.020408 98.0254237,114.265306 98.2033898,108.714286 C97.3135593,80.9591837 96.779661,64.9591837 96.4237288,60.877551 C96.779661,58.9183673 96.779661,56.3061224 96.779661,53.2040816 C96.779661,49.9387755 96.2457627,46.5102041 95,43.0816327 C95.8898305,40.7959184 96.779661,39.3265306 97.6694915,39 C98.2033898,39 104.076271,39.9795918 107.635593,41.7755102 C120.09322,42.755102 152.127119,46.3469388 152.127119,47.3265306 C152.483051,47.8163265 152.483051,51.7346939 152.483051,52.3877551 C152.483051,52.7142857 151.949153,53.3673469 150.70339,54.0204082" id="Shape" stroke="#FFFFFF" fill="#FFFFFF" sketch:type="MSShapeGroup"></path>
                </g>
            </g>
        </g>
    </g>
</svg>